<svg id="visual" viewBox="0 0 960 300" width="960" height="300" xmlns="http://www.w3.org/2000/svg" xmlns:xlink="http://www.w3.org/1999/xlink" version="1.1">
    <path d="M0 161L16 167.2C32 173.3 64 185.7 96 187.5C128 189.3 160 180.7 192 186.3C224 192 256 212 288 219.8C320 227.7 352 223.3 384 224.7C416 226 448 233 480 225.2C512 217.3 544 194.7 576 189C608 183.3 640 194.7 672 192.3C704 190 736 174 768 176.7C800 179.3 832 200.7 864 206.7C896 212.7 928 203.3 944 198.7L960 194L960 0L944 0C928 0 896 0 864 0C832 0 800 0 768 0C736 0 704 0 672 0C640 0 608 0 576 0C544 0 512 0 480 0C448 0 416 0 384 0C352 0 320 0 288 0C256 0 224 0 192 0C160 0 128 0 96 0C64 0 32 0 16 0L0 0Z" fill="#356cee"></path>
    <path d="M0 120L16 122.2C32 124.3 64 128.7 96 139.2C128 149.7 160 166.3 192 172.5C224 178.7 256 174.3 288 172.7C320 171 352 172 384 176.5C416 181 448 189 480 188.5C512 188 544 179 576 168.3C608 157.7 640 145.3 672 147.7C704 150 736 167 768 172.5C800 178 832 172 864 168C896 164 928 162 944 161L960 160L960 0L944 0C928 0 896 0 864 0C832 0 800 0 768 0C736 0 704 0 672 0C640 0 608 0 576 0C544 0 512 0 480 0C448 0 416 0 384 0C352 0 320 0 288 0C256 0 224 0 192 0C160 0 128 0 96 0C64 0 32 0 16 0L0 0Z" fill="#005ebc"></path>
    <path d="M0 143L16 135C32 127 64 111 96 110C128 109 160 123 192 122.7C224 122.3 256 107.7 288 104.7C320 101.7 352 110.3 384 119.2C416 128 448 137 480 134.2C512 131.3 544 116.7 576 111.5C608 106.3 640 110.7 672 117.3C704 124 736 133 768 128.5C800 124 832 106 864 101C896 96 928 104 944 108L960 112L960 0L944 0C928 0 896 0 864 0C832 0 800 0 768 0C736 0 704 0 672 0C640 0 608 0 576 0C544 0 512 0 480 0C448 0 416 0 384 0C352 0 320 0 288 0C256 0 224 0 192 0C160 0 128 0 96 0C64 0 32 0 16 0L0 0Z" fill="#004d89"></path>
    <path d="M0 80L16 77.7C32 75.3 64 70.7 96 70.3C128 70 160 74 192 77.2C224 80.3 256 82.7 288 82.5C320 82.3 352 79.7 384 78.2C416 76.7 448 76.3 480 73.5C512 70.7 544 65.3 576 65.3C608 65.3 640 70.7 672 76.7C704 82.7 736 89.3 768 88.3C800 87.3 832 78.7 864 73C896 67.3 928 64.7 944 63.3L960 62L960 0L944 0C928 0 896 0 864 0C832 0 800 0 768 0C736 0 704 0 672 0C640 0 608 0 576 0C544 0 512 0 480 0C448 0 416 0 384 0C352 0 320 0 288 0C256 0 224 0 192 0C160 0 128 0 96 0C64 0 32 0 16 0L0 0Z" fill="#193a57"></path>
    <path d="M0 46L16 45.3C32 44.7 64 43.3 96 43.3C128 43.3 160 44.7 192 46.2C224 47.7 256 49.3 288 46.2C320 43 352 35 384 36.5C416 38 448 49 480 49.3C512 49.7 544 39.3 576 39.8C608 40.3 640 51.7 672 54.2C704 56.7 736 50.3 768 49.3C800 48.3 832 52.7 864 52C896 51.3 928 45.7 944 42.8L960 40L960 0L944 0C928 0 896 0 864 0C832 0 800 0 768 0C736 0 704 0 672 0C640 0 608 0 576 0C544 0 512 0 480 0C448 0 416 0 384 0C352 0 320 0 288 0C256 0 224 0 192 0C160 0 128 0 96 0C64 0 32 0 16 0L0 0Z" fill="#212529"></path>
</svg>