<svg id="visual" viewBox="0 0 960 300" width="960" height="300" xmlns="http://www.w3.org/2000/svg" xmlns:xlink="http://www.w3.org/1999/xlink" version="1.1">
    <path d="M0 220L22.8 210.2C45.7 200.3 91.3 180.7 137 177.3C182.7 174 228.3 187 274 189.7C319.7 192.3 365.3 184.7 411.2 189.7C457 194.7 503 212.3 548.8 222C594.7 231.7 640.3 233.3 686 234.8C731.7 236.3 777.3 237.7 823 229.2C868.7 220.7 914.3 202.3 937.2 193.2L960 184L960 0L937.2 0C914.3 0 868.7 0 823 0C777.3 0 731.7 0 686 0C640.3 0 594.7 0 548.8 0C503 0 457 0 411.2 0C365.3 0 319.7 0 274 0C228.3 0 182.7 0 137 0C91.3 0 45.7 0 22.8 0L0 0Z" fill="#356cee"></path>
    <path d="M0 155L22.8 156.5C45.7 158 91.3 161 137 167.8C182.7 174.7 228.3 185.3 274 191.8C319.7 198.3 365.3 200.7 411.2 199.8C457 199 503 195 548.8 184.8C594.7 174.7 640.3 158.3 686 155.7C731.7 153 777.3 164 823 167C868.7 170 914.3 165 937.2 162.5L960 160L960 0L937.2 0C914.3 0 868.7 0 823 0C777.3 0 731.7 0 686 0C640.3 0 594.7 0 548.8 0C503 0 457 0 411.2 0C365.3 0 319.7 0 274 0C228.3 0 182.7 0 137 0C91.3 0 45.7 0 22.8 0L0 0Z" fill="#0061c6"></path>
    <path d="M0 130L22.8 133.7C45.7 137.3 91.3 144.7 137 142.7C182.7 140.7 228.3 129.3 274 121.7C319.7 114 365.3 110 411.2 107.3C457 104.7 503 103.3 548.8 103.7C594.7 104 640.3 106 686 117.2C731.7 128.3 777.3 148.7 823 152.5C868.7 156.3 914.3 143.7 937.2 137.3L960 131L960 0L937.2 0C914.3 0 868.7 0 823 0C777.3 0 731.7 0 686 0C640.3 0 594.7 0 548.8 0C503 0 457 0 411.2 0C365.3 0 319.7 0 274 0C228.3 0 182.7 0 137 0C91.3 0 45.7 0 22.8 0L0 0Z" fill="#00549d"></path>
    <path d="M0 130L22.8 129C45.7 128 91.3 126 137 118.7C182.7 111.3 228.3 98.7 274 92.7C319.7 86.7 365.3 87.3 411.2 89.2C457 91 503 94 548.8 96C594.7 98 640.3 99 686 99.5C731.7 100 777.3 100 823 97.3C868.7 94.7 914.3 89.3 937.2 86.7L960 84L960 0L937.2 0C914.3 0 868.7 0 823 0C777.3 0 731.7 0 686 0C640.3 0 594.7 0 548.8 0C503 0 457 0 411.2 0C365.3 0 319.7 0 274 0C228.3 0 182.7 0 137 0C91.3 0 45.7 0 22.8 0L0 0Z" fill="#0b4575"></path>
    <path d="M0 60L22.8 66.7C45.7 73.3 91.3 86.7 137 92.7C182.7 98.7 228.3 97.3 274 93.3C319.7 89.3 365.3 82.7 411.2 75.5C457 68.3 503 60.7 548.8 62.2C594.7 63.7 640.3 74.3 686 80.5C731.7 86.7 777.3 88.3 823 90.2C868.7 92 914.3 94 937.2 95L960 96L960 0L937.2 0C914.3 0 868.7 0 823 0C777.3 0 731.7 0 686 0C640.3 0 594.7 0 548.8 0C503 0 457 0 411.2 0C365.3 0 319.7 0 274 0C228.3 0 182.7 0 137 0C91.3 0 45.7 0 22.8 0L0 0Z" fill="#1c364d"></path>
    <path d="M0 28L22.8 28.5C45.7 29 91.3 30 137 31.5C182.7 33 228.3 35 274 37.3C319.7 39.7 365.3 42.3 411.2 40.7C457 39 503 33 548.8 36C594.7 39 640.3 51 686 56.5C731.7 62 777.3 61 823 59.2C868.7 57.3 914.3 54.7 937.2 53.3L960 52L960 0L937.2 0C914.3 0 868.7 0 823 0C777.3 0 731.7 0 686 0C640.3 0 594.7 0 548.8 0C503 0 457 0 411.2 0C365.3 0 319.7 0 274 0C228.3 0 182.7 0 137 0C91.3 0 45.7 0 22.8 0L0 0Z" fill="#212529"></path>
</svg>